[Header]
FileType HTR
DataType HTRS
FileVersion 1
NumSegments 64
NumFrames 2
DataFrameRate 24
EulerRotationOrder ZYX
CalibrationUnits mm
RotationUnits Degrees
GlobalAxisofGravity Y
BoneLengthAxis Y
ScaleFactor 1.0
[SegmentNames&Hierarchy]
Hips	GLOBAL
Spine	Hips
Spine1	Spine
Spine2	Spine1
Neck	Spine2
Head	Neck
LeftEye	Head
RightEye	Head
LeftShoulder	Spine2
LeftArm	LeftShoulder
LeftForeArm	LeftArm
LeftHand	LeftForeArm
LeftHandThumb1	LeftHand
LeftHandThumb2	LeftHandThumb1
LeftHandThumb3	LeftHandThumb2
LeftHandThumb4	LeftHandThumb3
LeftHandIndex1	LeftHand
LeftHandIndex2	LeftHandIndex1
LeftHandIndex3	LeftHandIndex2
LeftHandIndex4	LeftHandIndex3
LeftHandMiddle1	LeftHand
LeftHandMiddle2	LeftHandMiddle1
LeftHandMiddle3	LeftHandMiddle2
LeftHandMiddle4	LeftHandMiddle3
LeftHandRing1	LeftHand
LeftHandRing2	LeftHandRing1
LeftHandRing3	LeftHandRing2
LeftHandRing4	LeftHandRing3
LeftHandPinky1	LeftHand
LeftHandPinky2	LeftHandPinky1
LeftHandPinky3	LeftHandPinky2
LeftHandPinky4	LeftHandPinky3
RightShoulder	Spine2
RightArm	RightShoulder
RightForeArm	RightArm
RightHand	RightForeArm
RightHandPinky1	RightHand
RightHandPinky2	RightHandPinky1
RightHandPinky3	RightHandPinky2
RightHandPinky4	RightHandPinky3
RightHandRing1	RightHand
RightHandRing2	RightHandRing1
RightHandRing3	RightHandRing2
RightHandRing4	RightHandRing3
RightHandMiddle1	RightHand
RightHandMiddle2	RightHandMiddle1
RightHandMiddle3	RightHandMiddle2
RightHandMiddle4	RightHandMiddle3
RightHandIndex1	RightHand
RightHandIndex2	RightHandIndex1
RightHandIndex3	RightHandIndex2
RightHandIndex4	RightHandIndex3
RightHandThumb1	RightHand
RightHandThumb2	RightHandThumb1
RightHandThumb3	RightHandThumb2
RightHandThumb4	RightHandThumb3
LeftUpLeg	Hips
LeftLeg	LeftUpLeg
LeftFoot	LeftLeg
LeftToeBase	LeftFoot
RightUpLeg	Hips
RightLeg	RightUpLeg
RightFoot	RightLeg
RightToeBase	RightFoot
[BasePosition]
Hips	0	0	0	0	0	0	1
Spine	0	0	0	0	0	0	1
Spine1	0	0	0	0	0	0	1
Spine2	0	0	0	0	0	0	1
Neck	0	0	0	0	0	0	1
Head	0	0	0	0	0	0	1
LeftEye	0	0	0	0	0	0	1
RightEye	0	0	0	0	0	0	1
LeftShoulder	0	0	0	0	0	0	1
LeftArm	0	0	0	0	0	0	1
LeftForeArm	0	0	0	0	0	0	1
LeftHand	0	0	0	0	0	0	1
LeftHandThumb1	0	0	0	0	0	0	1
LeftHandThumb2	0	0	0	0	0	0	1
LeftHandThumb3	0	0	0	0	0	0	1
LeftHandThumb4	0	0	0	0	0	0	1
LeftHandIndex1	0	0	0	0	0	0	1
LeftHandIndex2	0	0	0	0	0	0	1
LeftHandIndex3	0	0	0	0	0	0	1
LeftHandIndex4	0	0	0	0	0	0	1
LeftHandMiddle1	0	0	0	0	0	0	1
LeftHandMiddle2	0	0	0	0	0	0	1
LeftHandMiddle3	0	0	0	0	0	0	1
LeftHandMiddle4	0	0	0	0	0	0	1
LeftHandRing1	0	0	0	0	0	0	1
LeftHandRing2	0	0	0	0	0	0	1
LeftHandRing3	0	0	0	0	0	0	1
LeftHandRing4	0	0	0	0	0	0	1
LeftHandPinky1	0	0	0	0	0	0	1
LeftHandPinky2	0	0	0	0	0	0	1
LeftHandPinky3	0	0	0	0	0	0	1
LeftHandPinky4	0	0	0	0	0	0	1
RightShoulder	0	0	0	0	0	0	1
RightArm	0	0	0	0	0	0	1
RightForeArm	0	0	0	0	0	0	1
RightHand	0	0	0	0	0	0	1
RightHandPinky1	0	0	0	0	0	0	1
RightHandPinky2	0	0	0	0	0	0	1
RightHandPinky3	0	0	0	0	0	0	1
RightHandPinky4	0	0	0	0	0	0	1
RightHandRing1	0	0	0	0	0	0	1
RightHandRing2	0	0	0	0	0	0	1
RightHandRing3	0	0	0	0	0	0	1
RightHandRing4	0	0	0	0	0	0	1
RightHandMiddle1	0	0	0	0	0	0	1
RightHandMiddle2	0	0	0	0	0	0	1
RightHandMiddle3	0	0	0	0	0	0	1
RightHandMiddle4	0	0	0	0	0	0	1
RightHandIndex1	0	0	0	0	0	0	1
RightHandIndex2	0	0	0	0	0	0	1
RightHandIndex3	0	0	0	0	0	0	1
RightHandIndex4	0	0	0	0	0	0	1
RightHandThumb1	0	0	0	0	0	0	1
RightHandThumb2	0	0	0	0	0	0	1
RightHandThumb3	0	0	0	0	0	0	1
RightHandThumb4	0	0	0	0	0	0	1
LeftUpLeg	0	0	0	0	0	0	1
LeftLeg	0	0	0	0	0	0	1
LeftFoot	0	0	0	0	0	0	1
LeftToeBase	0	0	0	0	0	0	1
RightUpLeg	0	0	0	0	0	0	1
RightLeg	0	0	0	0	0	0	1
RightFoot	0	0	0	0	0	0	1
RightToeBase	0	0	0	0	0	0	1
[Hips]
1	14.82337761	1011.021423	-3.080128431	-61.39564514	83.26328278	-62.8700676	1.0
2	91.22914124	1024.340332	-5.451454163	-53.71705246	83.77979279	-55.2743721	1.0
[Spine]
1	0	101.8159943	1.315000057	3.942852497	-11.83134651	4.502263546	1.0
2	0	101.8159943	1.315000057	3.765384674	-10.07940197	3.635677099	1.0
[Spine1]
1	0	100.8349991	-10.00800037	1.221496224	-16.79875374	2.231055975	1.0
2	0	100.8349991	-10.00800037	1.227873683	-16.24983406	2.022270203	1.0
[Spine2]
1	0	91	-13.73399925	0.9555420876	-16.7672081	2.59589529	1.0
2	0	91	-13.73399925	0.9694427252	-16.21546173	2.382726908	1.0
[Neck]
1	0	166.7169952	-25.16200066	3.414347172	-5.37315464	0.8714932203	1.0
2	0	166.7169952	-25.16200066	4.157256603	-5.795007229	1.018624067	1.0
[Head]
1	0	96.17900085	16.84999847	-14.77241325	-36.80559158	10.31879139	1.0
2	0	96.17900085	16.84999847	-14.75143814	-38.15097809	11.0103035	1.0
[LeftEye]
1	30.6760006	64.09500122	92.83599854	0	0	0	1.0
2	30.6760006	64.09500122	92.83599854	0	0	0	1.0
[RightEye]
1	-30.6760006	64.09500122	92.83499908	0	0	0	1.0
2	-30.6760006	64.09500122	92.83499908	0	0	0	1.0
[LeftShoulder]
1	45.70400238	109.4599991	-26.28000069	6.379383087	-21.34467888	-14.54636478	1.0
2	45.70400238	109.4599991	-26.28000069	6.585350513	-21.19125175	-15.48283291	1.0
[LeftArm]
1	105.923996	-5.24600029	-22.32099915	4.885086536	-5.649087429	-60.87345505	1.0
2	105.923996	-5.24600029	-22.32099915	-2.310324669	-1.310002804	-62.35136032	1.0
[LeftForeArm]
1	278.414978	-0.0009999999311	0	1.131105932e-06	-21.91451836	-0.0002057206293	1.0
2	278.414978	-0.0009999999311	0	-2.628503125e-06	-12.53969669	-0.000177745751	1.0
[LeftHand]
1	283.2879944	0	0	9.001839638	-28.95126534	17.61662674	1.0
2	283.2879944	0	0	15.85352993	-31.05712318	12.51297188	1.0
[LeftHandThumb1]
1	24.6609993	-15.75	26.8239994	7.330328465	0.9030626416	0.7741869092	1.0
2	24.6609993	-15.75	26.8239994	7.327132702	0.8953974247	0.770512104	1.0
[LeftHandThumb2]
1	32.29800034	-18.64699936	18.64699936	4.032965183	18.34336662	10.99196434	1.0
2	32.29800034	-18.64699936	18.64699936	8.545161247	19.4861927	11.60644531	1.0
[LeftHandThumb3]
1	26.52600098	-15.31499958	15.31499958	3.028379917	12.62879181	0.8443253636	1.0
2	26.52600098	-15.31499958	15.31499958	3.238498449	6.160957336	0.09374044091	1.0
[LeftHandThumb4]
1	19.54599953	-11.28499985	11.28499985	0	0	0	1.0
2	19.54599953	-11.28499985	11.28499985	0	0	0	1.0
[LeftHandIndex1]
1	91.09299469	-5.170999527	22.60099792	-1.03184557	2.307044506	-16.47789955	1.0
2	91.09299469	-5.170999527	22.60099792	-1.034035921	2.721770763	-13.32942867	1.0
[LeftHandIndex2]
1	36.76399994	0	0	-0.1586965621	1.624384403	-8.373981476	1.0
2	36.76399994	0	0	-0.03231917322	1.098395109	-3.058407068	1.0
[LeftHandIndex3]
1	28.83100128	0	0	-0.09742148221	0.7342887521	-9.451506615	1.0
2	28.83100128	0	0	-0.03050442971	0.1490917057	-3.593044519	1.0
[LeftHandIndex4]
1	23.92700005	0	0	0	0	0	1.0
2	23.92700005	0	0	0	0	0	1.0
[LeftHandMiddle1]
1	95.33399963	0	0	-3.292708635	6.806358814	-29.94649887	1.0
2	95.33399963	0	0	-2.246696711	7.63250494	-21.83206367	1.0
[LeftHandMiddle2]
1	36.98199844	0	0	-0.4499600232	2.37715292	-16.10785294	1.0
2	36.98199844	0	0	-0.09698029608	1.425028086	-6.077212811	1.0
[LeftHandMiddle3]
1	29.50900078	0	0	-0.1097218841	1.30779016	-10.43437862	1.0
2	29.50900078	0	0	0.005299943034	0.2300076187	0.4700810909	1.0
[LeftHandMiddle4]
1	28.3390007	0	0	0	0	0	1.0
2	28.3390007	0	0	0	0	0	1.0
[LeftHandRing1]
1	91.04499817	-0.4390000105	-18.65100098	-4.67771101	12.69407368	-38.80783844	1.0
2	91.04499817	-0.4390000105	-18.65100098	-3.094855547	12.51149368	-27.14930344	1.0
[LeftHandRing2]
1	31.54000092	0	0	-0.2359432131	2.20269537	-18.99665642	1.0
2	31.54000092	0	0	-0.0151209794	1.055524468	-7.196061134	1.0
[LeftHandRing3]
1	29.37700081	0	0	-0.01300671324	1.522363067	-15.42752075	1.0
2	29.37700081	0	0	0.05209973827	0.1003288403	-1.096310854	1.0
[LeftHandRing4]
1	26.47500038	0	0	0	0	0	1.0
2	26.47500038	0	0	0	0	0	1.0
[LeftHandPinky1]
1	80.77799988	-4.887000084	-38.06099701	-6.338127136	15.59782696	-45.16201782	1.0
2	80.77799988	-4.887000084	-38.06099701	-3.809904099	16.45782089	-29.75481987	1.0
[LeftHandPinky2]
1	36	0	0	-0.746630013	2.352699518	-26.61233902	1.0
2	36	0	0	-0.1450313032	0.8263956308	-10.15075111	1.0
[LeftHandPinky3]
1	21.14200211	0	0	-0.2472304404	2.077489853	-12.41392136	1.0
2	21.14200211	0	0	0.01245877612	0.4505640566	4.070396423	1.0
[LeftHandPinky4]
1	19.75699997	0	0	0	0	0	1.0
2	19.75699997	0	0	0	0	0	1.0
[RightShoulder]
1	-45.70000076	109.4620056	-26.28000069	3.678032637	-2.924473047	12.6447134	1.0
2	-45.70000076	109.4620056	-26.28000069	3.788163424	-1.794647098	12.36654568	1.0
[RightArm]
1	-105.9280014	-5.248000145	-22.32099915	15.14839077	-2.645917892	64.26778412	1.0
2	-105.9280014	-5.248000145	-22.32099915	18.11348915	4.915764332	63.59032059	1.0
[RightForeArm]
1	-278.414978	0	0	6.908177511e-06	17.26913452	1.029942996e-05	1.0
2	-278.414978	0	0	2.948985639e-06	18.35613441	-1.391153546e-06	1.0
[RightHand]
1	-283.2879944	0	0.0009999999311	38.30620193	-12.62552261	16.2376976	1.0
2	-283.2879944	0	0.0009999999311	33.42552567	-6.591186047	11.62720013	1.0
[RightHandPinky1]
1	-80.76699829	-4.885000229	-38.06000137	-6.337973595	-15.59883308	45.16237259	1.0
2	-80.76699829	-4.885000229	-38.06000137	-5.757425785	-15.63907528	42.56801987	1.0
[RightHandPinky2]
1	-36	0	0.0009999999311	-0.7458423376	-2.350923777	26.61235046	1.0
2	-36	0	0.0009999999311	-0.6310043335	-2.139751434	24.20662498	1.0
[RightHandPinky3]
1	-21.14200211	0	0	-0.4485472739	0.8023694754	14.0256176	1.0
2	-21.14200211	0	0	-0.3756420314	1.030405164	11.64003086	1.0
[RightHandPinky4]
1	-19.75699997	0	0	0	0	0	1.0
2	-19.75699997	0	0	0	0	0	1.0
[RightHandRing1]
1	-91.03599548	-0.4390000105	-18.65100098	-4.677573681	-12.69357014	38.80800247	1.0
2	-91.03599548	-0.4390000105	-18.65100098	-4.32729578	-12.58739471	36.30967331	1.0
[RightHandRing2]
1	-31.54000092	0	0	-0.2359034121	-2.20243144	18.99666405	1.0
2	-31.54000092	0	0	-0.1705653816	-1.968001366	16.54132462	1.0
[RightHandRing3]
1	-29.37700081	0	0	-0.06926743686	0.4730029702	13.90758038	1.0
2	-29.37700081	0	0	-0.04023190588	0.7067161798	11.54279995	1.0
[RightHandRing4]
1	-26.47500038	0	0	0	0	0	1.0
2	-26.47500038	0	0	0	0	0	1.0
[RightHandMiddle1]
1	-95.32500458	0	0	-3.292611837	-6.805975437	29.94657135	1.0
2	-95.32500458	0	0	-2.999974966	-6.523700237	27.7760849	1.0
[RightHandMiddle2]
1	-36.98199844	0	0	-0.4499237835	-2.376922131	16.10788727	1.0
2	-36.98199844	0	0	-0.3384920359	-2.126791	13.40465355	1.0
[RightHandMiddle3]
1	-29.50900078	0	0	-0.2029598206	-1.503272176	14.06851006	1.0
2	-29.50900078	0	0	-0.1397175342	-1.246828914	11.413764	1.0
[RightHandMiddle4]
1	-28.3390007	0	0.0009999999311	0	0	0	1.0
2	-28.3390007	0	0.0009999999311	0	0	0	1.0
[RightHandIndex1]
1	-91.08300018	-5.167999744	22.60099792	-1.031816483	-2.306828499	16.47793388	1.0
2	-91.08300018	-5.167999744	22.60099792	-0.8905296922	-1.834368587	14.04253006	1.0
[RightHandIndex2]
1	-36.76399994	0	0	-0.1586833447	-1.624261498	8.374016762	1.0
2	-36.76399994	0	0	-0.09319422394	-1.378450751	5.874526501	1.0
[RightHandIndex3]
1	-28.83100128	0	0	-0.2216431051	-0.08714608103	13.12564564	1.0
2	-28.83100128	0	0	-0.1659285426	0.1802913994	10.40920448	1.0
[RightHandIndex4]
1	-23.92700005	0	0	0	0	0	1.0
2	-23.92700005	0	0	0	0	0	1.0
[RightHandThumb1]
1	-24.64799881	-15.72700024	26.82600021	7.329996109	-0.9027534723	-0.7743949294	1.0
2	-24.64799881	-15.72700024	26.82600021	5.702444077	-2.357031345	-3.182184219	1.0
[RightHandThumb2]
1	-32.29800034	-18.64699936	18.64699936	4.032636642	-18.34222603	-10.9903841	1.0
2	-32.29800034	-18.64699936	18.64699936	5.727867603	-19.14228821	-10.53775883	1.0
[RightHandThumb3]
1	-26.52600098	-15.31399918	15.31399918	2.755795717	-11.78796101	-0.01056945138	1.0
2	-26.52600098	-15.31399918	15.31399918	2.773849249	-11.8418026	0.003234495409	1.0
[RightHandThumb4]
1	-19.54599953	-11.28499985	11.28499985	0	0	0	1.0
2	-19.54599953	-11.28499985	11.28499985	0	0	0	1.0
[LeftUpLeg]
1	82.07800293	-67.51699829	-15.99599934	-11.4502306	6.179452419	4.398936272	1.0
2	82.07800293	-67.51699829	-15.99599934	-20.79538155	3.279450178	2.446928501	1.0
[LeftLeg]
1	0	-443.7049866	2.845999956	63.28835678	-0.5211361051	11.58988476	1.0
2	0	-443.7049866	2.845999956	62.33243179	0.2168971002	11.13179111	1.0
[LeftFoot]
1	0	-444.2789917	-29.8219986	9.027722359	6.424962521	-4.55872345	1.0
2	0	-444.2789917	-29.8219986	0.3660470843	5.576213837	-2.797568083	1.0
[LeftToeBase]
1	0	-87.28699493	107.1060028	-2.662976027	1.078636069e-05	-8.470149623e-06	1.0
2	0	-87.28699493	107.1060028	-0.5599299073	-5.005797448e-06	-9.210378266e-06	1.0
[RightUpLeg]
1	-82.07800293	-67.51699829	-15.99599934	-14.8871851	2.896600723	14.19745159	1.0
2	-82.07800293	-67.51699829	-15.99599934	-7.00154686	0.0308716204	13.28557587	1.0
[RightLeg]
1	0	-443.7049866	2.861999989	16.84282112	-4.642861366	-4.50104332	1.0
2	0	-443.7049866	2.861999989	10.55643368	-5.378756523	-4.813926697	1.0
[RightFoot]
1	0	-444.2770081	-29.83799934	-3.331745386	-6.683664322	-4.608459473	1.0
2	0	-444.2770081	-29.83799934	-4.188066959	-2.781065941	-3.644014597	1.0
[RightToeBase]
1	0	-87.28699493	107.1060028	-1.680369735	-3.713179831e-05	2.80803215e-06	1.0
2	0	-87.28699493	107.1060028	-4.369160175	2.660081373e-05	5.235645517e-08	1.0
[EndOfFile]
